<svg xmlns="http://www.w3.org/2000/svg" viewBox="2310.5 0 1182.5 1182.5" role="img" aria-label="Roots Agency">
  <path fill-rule="evenodd" clip-rule="evenodd" d="M2901.75 0C3228.29 0 3493 264.712 3493 591.25C3493 917.788 3228.29 1182.5 2901.75 1182.5C2575.21 1182.5 2310.5 917.788 2310.5 591.25C2310.5 264.712 2575.21 0 2901.75 0ZM2402.84 407.192C2389.23 443.81 2379.53 482.329 2374.25 522.243C2626.44 662.11 2608.58 974.291 2782.07 1111.76C2820.69 1120.67 2860.92 1125.38 2902.25 1125.38C2956.99 1125.38 3009.8 1117.12 3059.51 1101.78C2606.96 1029.15 2750.57 527.223 2402.84 407.192ZM2369.65 587.961C2369.63 589.557 2369.63 591.154 2369.62 592.753C2369.62 801.385 2489.58 981.998 2664.28 1069.39C2557.76 887.736 2531.78 685.671 2369.65 587.961ZM2498 387C2828.36 600.419 2661.08 1070.91 3190.37 1038.89C2948.3 959.842 2932.45 487.296 2498 387ZM3046.93 80.0146C3041.02 105.079 3004.87 327.88 2746 440C3037.04 663.496 3032.57 947.669 3246.16 999.482C3284.53 967.008 3318.24 929.202 3346.15 887.208C3192.79 816.998 3014.41 615.428 2839 442.5C3077.68 379.766 3124.2 135.919 3114.64 104.161C3092.8 94.6509 3070.19 86.5632 3046.93 80.0146ZM3011 532.5C3160.5 689.304 3279.17 783.976 3376.25 835.92C3413.72 763.022 3434.88 680.358 3434.88 592.753C3434.88 579.796 3434.41 566.947 3433.5 554.222C3372.62 581.398 3210.95 562.917 3011 532.5ZM3337.5 288.5C3303.5 317.5 3132.5 446.5 3050.5 480C3201.5 502 3261 511.5 3373.5 511.5C3407 506.5 3413 501 3425 492C3425.1 491.921 3425.21 491.845 3425.32 491.768C3410.95 416.899 3380.9 347.604 3338.73 287.429C3338.33 287.784 3337.92 288.143 3337.5 288.5ZM3171 135.5C3165 179 3155.5 214.5 3134.5 258C3111.46 305.729 3089 343.5 3054.5 378.5C3012.5 421.109 3030.29 405.06 2984 440C2984 440 3050 422 3118.5 378.5C3178.84 341.096 3205.86 322.096 3302.75 241.618C3265.07 198.674 3220.59 161.842 3171 132.802V135.5ZM2737.18 86.2021C2716.93 92.7977 2697.21 100.574 2678.1 109.45C2687.99 200.071 2687.78 230.847 2683.5 296C2635.56 278.88 2593.85 259.37 2493.28 251.509C2474.46 274.036 2457.47 298.143 2442.54 323.6C2564.46 336.16 2639.3 371.492 2688 401.5C2736.83 310.326 2753.88 198.301 2737.18 86.2021ZM2902.25 60.127C2864.27 60.127 2827.22 64.1022 2791.48 71.6602C2810.23 145.549 2798.42 294.428 2766 367C2823.19 343.513 2960.26 227.97 2991.42 67.5596C2962.42 62.6727 2932.63 60.127 2902.25 60.127ZM2623.32 138.913C2593.65 157.191 2565.9 178.301 2540.46 201.861C2558.72 204.339 2542.06 202.505 2629 216.5C2629 196 2626.88 151 2623.5 139.5C2623.44 139.303 2623.38 139.107 2623.32 138.913Z" fill="#F5F5F5"/>
</svg>
