<svg width="5365" height="1182" viewBox="0 0 5365 1182" fill="none" xmlns="http://www.w3.org/2000/svg">
<path d="M4948.82 2C5000.11 2 5060.47 6.19572 5095.5 17.5C5130.53 28.8043 5148 35.1342 5163.5 41.5C5197.5 55.4637 5215.5 69 5231 81C5251 96.4839 5262 107.5 5273.5 126H5257H5241.5H5215.5H5178.5C5139.5 92.5 5132 87.4885 5095.5 69.5C5051.71 47.9191 5006.04 36.5 4956 36.5C4882.18 36.5 4832.29 52.0597 4786 87C4740.96 121.941 4702.5 187.034 4702.5 241.5C4702.5 300.077 4738.5 335.5 4779.92 370.418C4826.21 403.303 4894 447.5 4963.5 482L5040.5 522.5C5106 558.5 5144.5 583 5192 612.5C5238 645.5 5289.98 692 5315 727.5C5342.52 766.551 5366.5 805 5364 865C5361.35 928.5 5351.5 954 5320 997C5287.37 1041.54 5240.3 1068.81 5184 1094.5C5131.5 1113.5 5071.5 1128 5007.5 1135.5C4957.46 1135.5 4899.5 1136.5 4854.5 1136.5C4811.82 1134 4758 1128.7 4721 1118.04C4691.5 1109.54 4674.5 1104.72 4654 1097.5C4636.48 1091.33 4621.1 1080.83 4612 1075C4599 1066.68 4604.5 1070.87 4592 1061.5C4582 1054 4568.5 1041.5 4562.5 1035.5L4541.58 1008L4616 1006.5H4667C4687.5 1041 4688.5 1049.5 4740.5 1077C4796 1106.35 4893.94 1102.5 4964 1102.5C5002.78 1102.5 5048.47 1091.86 5083.5 1078.5C5120 1066.5 5174 1027.97 5200 996.5C5223.77 967.725 5238 939.245 5238 893C5238 846.755 5221.56 807.175 5196.54 774.29C5172.77 740.377 5145 710 5104.5 680C5064.5 650.37 5040.5 635.5 4978.5 598.5L4875 539C4779.92 492 4714.5 444.5 4658 401.5C4612.96 356.283 4571.5 323.881 4571.5 254C4571.5 199.534 4596 157.5 4618.5 133.5C4653 95.5 4697 64.5 4751.77 37.4548C4809.32 13.8186 4875 2 4948.82 2Z" fill="#F5F5F5"/>
<path d="M3887.45 23.1064H4041.92L4462 18.9443V60H4014V1118H3895V937.801C3895.38 928.821 3895.58 919.272 3895.58 909.156V64.5684H3895V62H3454V18.7969L3887.45 23.1064Z" fill="#F5F5F5"/>
<path fill-rule="evenodd" clip-rule="evenodd" d="M2901.75 0C3228.29 0 3493 264.712 3493 591.25C3493 917.788 3228.29 1182.5 2901.75 1182.5C2575.21 1182.5 2310.5 917.788 2310.5 591.25C2310.5 264.712 2575.21 0 2901.75 0ZM2402.84 407.192C2389.23 443.81 2379.53 482.329 2374.25 522.243C2626.44 662.11 2608.58 974.291 2782.07 1111.76C2820.69 1120.67 2860.92 1125.38 2902.25 1125.38C2956.99 1125.38 3009.8 1117.12 3059.51 1101.78C2606.96 1029.15 2750.57 527.223 2402.84 407.192ZM2369.65 587.961C2369.63 589.557 2369.63 591.154 2369.62 592.753C2369.62 801.385 2489.58 981.998 2664.28 1069.39C2557.76 887.736 2531.78 685.671 2369.65 587.961ZM2498 387C2828.36 600.419 2661.08 1070.91 3190.37 1038.89C2948.3 959.842 2932.45 487.296 2498 387ZM3046.93 80.0146C3041.02 105.079 3004.87 327.88 2746 440C3037.04 663.496 3032.57 947.669 3246.16 999.482C3284.53 967.008 3318.24 929.202 3346.15 887.208C3192.79 816.998 3014.41 615.428 2839 442.5C3077.68 379.766 3124.2 135.919 3114.64 104.161C3092.8 94.6509 3070.19 86.5632 3046.93 80.0146ZM3011 532.5C3160.5 689.304 3279.17 783.976 3376.25 835.92C3413.72 763.022 3434.88 680.358 3434.88 592.753C3434.88 579.796 3434.41 566.947 3433.5 554.222C3372.62 581.398 3210.95 562.917 3011 532.5ZM3337.5 288.5C3303.5 317.5 3132.5 446.5 3050.5 480C3201.5 502 3261 511.5 3373.5 511.5C3407 506.5 3413 501 3425 492C3425.1 491.921 3425.21 491.845 3425.32 491.768C3410.95 416.899 3380.9 347.604 3338.73 287.429C3338.33 287.784 3337.92 288.143 3337.5 288.5ZM3171 135.5C3165 179 3155.5 214.5 3134.5 258C3111.46 305.729 3089 343.5 3054.5 378.5C3012.5 421.109 3030.29 405.06 2984 440C2984 440 3050 422 3118.5 378.5C3178.84 341.096 3205.86 322.096 3302.75 241.618C3265.07 198.674 3220.59 161.842 3171 132.802V135.5ZM2737.18 86.2021C2716.93 92.7977 2697.21 100.574 2678.1 109.45C2687.99 200.071 2687.78 230.847 2683.5 296C2635.56 278.88 2593.85 259.37 2493.28 251.509C2474.46 274.036 2457.47 298.143 2442.54 323.6C2564.46 336.16 2639.3 371.492 2688 401.5C2736.83 310.326 2753.88 198.301 2737.18 86.2021ZM2902.25 60.127C2864.27 60.127 2827.22 64.1022 2791.48 71.6602C2810.23 145.549 2798.42 294.428 2766 367C2823.19 343.513 2960.26 227.97 2991.42 67.5596C2962.42 62.6727 2932.63 60.127 2902.25 60.127ZM2623.32 138.913C2593.65 157.191 2565.9 178.301 2540.46 201.861C2558.72 204.339 2542.06 202.505 2629 216.5C2629 196 2626.88 151 2623.5 139.5C2623.44 139.303 2623.38 139.107 2623.32 138.913Z" fill="#F5F5F5"/>
<path fill-rule="evenodd" clip-rule="evenodd" d="M1571.75 3.5C1658.37 3.50004 1737.59 18.3301 1809.39 45.9912C1882.34 73.6525 1937.57 121.929 1990 173.153C2043.57 223.353 2094.01 290.359 2122.5 359C2152.13 427.641 2165 486.523 2165 568.482C2165 650.441 2147.13 716.335 2117.5 786C2089.01 854.641 2044.07 917.276 1990.5 968.5C1938.07 1018.7 1857.95 1073.84 1785 1101.5C1713.19 1129.16 1658.37 1137 1571.75 1137C1485.13 1137 1405.34 1120.17 1332.4 1092.51C1260.59 1064.85 1197.91 1025.92 1144.34 975.717C1091.91 924.492 1050.88 864.56 1021.24 795.919C992.748 726.254 978.5 650.441 978.5 568.482C978.5 486.523 992.748 411.222 1021.24 342.581C1050.88 273.94 1091.91 214.521 1144.34 164.321C1197.91 113.096 1260.59 73.6525 1332.4 45.9912C1405.34 18.3301 1485.13 3.5 1571.75 3.5ZM1571.75 45.9912C1316.83 50.0646 1121.21 227.869 1093.5 568.482C1115.81 913.448 1346.1 1085.99 1571.75 1087.9C1797.4 1089.8 2041.73 907.329 2046.5 574.5C2051.27 241.671 1813.09 53.0315 1571.75 45.9912Z" fill="#F5F5F5"/>
<path fill-rule="evenodd" clip-rule="evenodd" d="M25 24.5H323.5C505.5 29 593.5 74.5 666.5 118C744 173.5 806.5 260.376 806.5 365.5C806.5 462.068 781.248 525.548 706 583C642.64 632.288 585.26 662.785 470.62 679.685C560.607 688.615 634.448 719.506 693.726 767.427C764.793 824.878 819.5 901.5 839 1012C853.676 1095.17 848.047 1073.67 849.484 1115H724.613C724.602 1080.75 724.448 1047.44 722.5 1020.5C710.5 926.5 705 898.5 674 840.5C643 782.5 601.813 756.115 540.5 728C479.187 698.663 296.583 695.918 204.613 695.918H114.733V1086.47C114.733 1096.44 114.849 1105.95 115.078 1115H0V24.5H25ZM114.733 661H292C420.2 661 548.261 619.228 604 574C661.133 528.772 688.5 465.735 688.5 365.5C688.5 267.71 639.346 190.228 585 145C532.048 98.5498 418.372 62 305.5 62H119L114.733 661Z" fill="#F5F5F5"/>
</svg>
